Coordinates
version=1
nRows=26
nColumns=22
inDegrees=yes

Units are S.I. units (second, meters, Newtons, ...)
If the header above contains a line with 'inDegrees', this indicates whether rotational values are in degrees (yes) or radians (no).

endheader
time	pelvis_tilt	pelvis_list	pelvis_rotation	pelvis_tx	pelvis_ty	pelvis_tz	hip_flexion_r	hip_adduction_r	hip_rotation_r	knee_angle_r	ankle_angle_r	subtalar_angle_r	hip_flexion_l	hip_adduction_l	hip_rotation_l	knee_angle_l	ankle_angle_l	subtalar_angle_l	lumbar_extension	lumbar_bending	lumbar_rotation
      0.01000000	      5.01353191	      7.26753503	    189.49916964	      0.25276642	      0.97075488	      1.02974893	     10.75982065	     10.06253379	    -10.60875691	    -13.76236675	      8.20017122	     -3.07761701	     18.04176602	    -10.00317471	     10.20839798	    -26.35300487	     14.16653048	      5.10434603	     -1.32839624	      8.56692688	     -8.54289105
      0.02000000	      5.02400027	      7.22886405	    189.48070800	      0.25286925	      0.97082421	      1.02969354	     10.76235485	     10.02670401	    -10.57828735	    -13.75032234	      8.17938513	     -3.08202326	     18.00562525	     -9.84254257	     10.34642336	    -26.20073183	     14.23356417	      5.13529746	     -1.30879523	      8.52797858	     -8.51320468
      0.03000000	      5.01568754	      7.17160892	    189.45789314	      0.25292645	      0.97093211	      1.02964275	     10.74496145	      9.97244363	    -10.56756046	    -13.75096500	      8.17904806	     -3.09087469	     17.92826820	     -9.65529915	     10.47008084	    -26.01710002	     14.29348767	      5.20825430	     -1.30281601	      8.46944057	     -8.46092458
      0.04000000	      5.00919721	      7.13649816	    189.43582275	      0.25297719	      0.97102051	      1.02958995	     10.73457455	      9.94331255	    -10.53133916	    -13.75202880	      8.14768132	     -3.09165821	     17.87203149	     -9.48169843	     10.57923013	    -25.85965512	     14.38737399	      5.24958703	     -1.28386171	      8.43278389	     -8.41653328
      0.05000000	      4.98914171	      7.09752853	    189.41364136	      0.25296916	      0.97112152	      1.02954914	     10.71239302	      9.91130636	    -10.50537220	    -13.76546681	      8.13403395	     -3.09573136	     17.79522310	     -9.30713413	     10.65077372	    -25.70614827	     14.47120206	      5.29292824	     -1.26794284	      8.39107814	     -8.36565291
      0.06000000	      4.94802561	      7.04972122	    189.38742502	      0.25287762	      0.97124935	      1.02951970	     10.65929367	      9.87461440	    -10.48319735	    -13.77633858	      8.14317818	     -3.10676427	     17.68322945	     -9.14002620	     10.64323945	    -25.55242239	     14.53801344	      5.34334029	     -1.26518266	      8.33825134	     -8.31443003
      0.07000000	      4.90608541	      7.02847268	    189.36799471	      0.25276904	      0.97135014	      1.02950657	     10.61605096	      9.86461845	    -10.45422183	    -13.79753341	      8.13445084	     -3.11651815	     17.59044499	     -9.00336111	     10.60684205	    -25.43995411	     14.61688295	      5.35055736	     -1.25150304	      8.31144946	     -8.27028095
      0.08000000	      4.86163716	      7.01415404	    189.35260609	      0.25262752	      0.97143671	      1.02952694	     10.57561438	      9.85944294	    -10.43193004	    -13.82928806	      8.13321900	     -3.12820964	     17.50003213	     -8.88154747	     10.52378189	    -25.35472457	     14.68056066	      5.31982117	     -1.23147739	      8.29148563	     -8.23898960
      0.09000000	      4.83478514	      7.03342169	    189.36439182	      0.25246875	      0.97147363	      1.02958224	     10.56149632	      9.88113919	    -10.44134654	    -13.85979787	      8.11858245	     -3.12899846	     17.45247559	     -8.79208699	     10.43024494	    -25.30936697	     14.72765410	      5.30124013	     -1.17330438	      8.30106288	     -8.25804116
      0.10000000	      4.75802227	      7.00624938	    189.34200967	      0.25226564	      0.97158529	      1.02966384	     10.48697733	      9.86629782	    -10.39147890	    -13.90477597	      8.13087454	     -3.15082179	     17.31607789	     -8.68156602	     10.24439996	    -25.26061743	     14.74272382	      5.15114714	     -1.18343398	      8.26959293	     -8.21386712
      0.11000000	      4.70962551	      7.02719184	    189.36125265	      0.25208637	      0.97161457	      1.02978731	     10.46672599	      9.88547236	    -10.41423609	    -13.96696240	      8.13876951	     -3.15587427	     17.25109015	     -8.61037021	     10.08100800	    -25.26718798	     14.75482518	      5.09217763	     -1.14336324	      8.28045775	     -8.23002034
      0.12000000	      4.64545136	      7.03163151	    189.35588522	      0.25185983	      0.97167537	      1.02993227	     10.41921973	      9.89425589	    -10.38272659	    -14.02702403	      8.16403977	     -3.16607050	     17.12516188	     -8.53599502	      9.89177176	    -25.24140340	     14.73048241	      4.93415230	     -1.12093250	      8.27669764	     -8.22004741
      0.13000000	      4.58212843	      7.05562931	    189.37822932	      0.25164702	      0.97170469	      1.03012290	     10.37861099	      9.91635586	    -10.39060938	    -14.08523575	      8.18102746	     -3.16752573	     17.01895612	     -8.47720173	      9.72618793	    -25.24948371	     14.70140141	      4.80156963	     -1.08883954	      8.28988335	     -8.23957176
      0.14000000	      4.52352992	      7.08465255	    189.40318608	      0.25144229	      0.97171190	      1.03034483	     10.34574533	      9.94004954	    -10.39952986	    -14.14703467	      8.20191260	     -3.16557356	     16.91131794	     -8.42331814	      9.57532842	    -25.26259061	     14.67347851	      4.71882570	     -1.04854471	      8.30505313	     -8.26038357
      0.15000000	      4.48848493	      7.12805334	    189.43593487	      0.25125264	      0.97167219	      1.03059874	     10.33865751	      9.97150226	    -10.41452513	    -14.20310209	      8.21187593	     -3.16565934	     16.82351926	     -8.37753028	      9.46051456	    -25.27497106	     14.65177730	      4.70593376	     -0.97490531	      8.32976039	     -8.30957113
      0.16000000	      4.39634847	      7.15076686	    189.44965636	      0.25103038	      0.97169845	      1.03087224	     10.26871021	      9.99086111	    -10.41981331	    -14.27090955	      8.25624332	     -3.15675568	     16.64087551	     -8.33090650	      9.32364211	    -25.26073351	     14.63222462	      4.62429405	     -0.97155499	      8.34095195	     -8.30442203
      0.17000000	      4.34814107	      7.19963957	    189.47712167	      0.25084817	      0.97164626	      1.03116664	     10.25273979	     10.02592000	    -10.44761149	    -14.33653654	      8.28108669	     -3.15329667	     16.51649928	     -8.30009892	      9.22721231	    -25.25696400	     14.59544296	      4.60934493	     -0.91109568	      8.36834715	     -8.33783349
      0.18000000	      4.27064807	      7.23305617	    189.49695191	      0.25061568	      0.97163575	      1.03148557	     10.19107778	     10.05113021	    -10.45647351	    -14.38890482	      8.31286233	     -3.13699487	     16.31851790	     -8.26424452	      9.14784261	    -25.20476310	     14.56231363	      4.58506273	     -0.88140893	      8.38138555	     -8.37382138
      0.19000000	      4.23051829	      7.29061472	    189.51197913	      0.25041453	      0.97155592	      1.03180950	     10.18218532	     10.09205223	    -10.47849305	    -14.45418328	      8.34527846	     -3.13317186	     16.16728732	     -8.25149938	      9.08211377	    -25.15642873	     14.48861216	      4.58831602	     -0.80602741	      8.41204202	     -8.40949954
      0.20000000	      4.20855171	      7.35024497	    189.52392323	      0.25019324	      0.97144077	      1.03213200	     10.18822003	     10.13421143	    -10.48245855	    -14.51425344	      8.36726053	     -3.13235117	     16.01944714	     -8.24744861	      9.02000730	    -25.08248848	     14.42970833	      4.59421019	     -0.70432142	      8.43403012	     -8.47479959
      0.21000000	      4.08779814	      7.37286409	    189.53644322	      0.24987631	      0.97148442	      1.03251368	     10.06149445	     10.15350309	    -10.49440968	    -14.54838453	      8.40638498	     -3.10060903	     15.71476604	     -8.23305450	      8.95517515	    -24.93809510	     14.27377297	      4.57051393	     -0.71355945	      8.43316673	     -8.51518076
      0.22000000	      4.02042941	      7.42836103	    189.53576966	      0.24957825	      0.97143620	      1.03286492	     10.00297847	     10.20098703	    -10.48524327	    -14.59128018	      8.43380952	     -3.07494599	     15.47454705	     -8.25900434	      8.88102551	    -24.78411293	     14.12446847	      4.52083850	     -0.65520743	      8.45141689	     -8.56389214
      0.23000000	      3.95605168	      7.48210259	    189.53424768	      0.24927007	      0.97138719	      1.03324053	      9.94899942	     10.24389952	    -10.48161553	    -14.63942755	      8.46618173	     -3.05698234	     15.22334279	     -8.29410564	      8.80812332	    -24.59028068	     13.96242910	      4.44636371	     -0.58960298	      8.46488737	     -8.61940761
      0.24000000	      3.88990028	      7.53705982	    189.52760344	      0.24894038	      0.97134871	      1.03363153	      9.89177111	     10.28827581	    -10.46992672	    -14.68775567	      8.49688442	     -3.04119882	     14.95250220	     -8.34615744	      8.72215311	    -24.34705994	     13.80976463	      4.33514614	     -0.52215104	      8.47673530	     -8.68041698
      0.25000000	      3.82162883	      7.58614158	    189.51848987	      0.24860386	      0.97132732	      1.03403373	      9.83101071	     10.32749888	    -10.45191675	    -14.73740112	      8.52513409	     -3.02541208	     14.66485369	     -8.40600540	      8.62764824	    -24.05818664	     13.67671301	      4.19332150	     -0.45584852	      8.47750387	     -8.74612843
      0.26000000	      3.75909729	      7.63076938	    189.50572718	      0.24826602	      0.97131977	      1.03446335	      9.77707570	     10.35970689	    -10.42836188	    -14.79118947	      8.55142455	     -3.00895992	     14.36816407	     -8.47029967	      8.52894472	    -23.72560225	     13.57459151	      4.04252231	     -0.38210563	      8.47090240	     -8.81840306
